<?xml version="1.0" encoding="UTF-8"?>
<svg width="48px" height="48px" viewBox="0 0 48 48" version="1.1" xmlns="http://www.w3.org/2000/svg" xmlns:xlink="http://www.w3.org/1999/xlink">
    <!-- Generator: sketchtool 49.3 (51167) - http://www.bohemiancoding.com/sketch -->
    <title>CD9394E2-1C5B-4911-A2A2-9996897A45AE</title>
    <desc>Created with sketchtool.</desc>
    <defs></defs>
    <g id="дизайн" stroke="none" stroke-width="1" fill="none" fill-rule="evenodd">
        <g id="Для-школы-разрабов" transform="translate(-16.000000, -701.000000)">
            <g id="Group-61" transform="translate(16.000000, 701.000000)">
                <g id="Group-62" transform="translate(11.000000, 12.000000)">
                    <path d="M5.33972824,22 L4.36896437,8.27314695 L2.6140003,8.27314695 C2.2748973,8.27314695 2,8.02312328 2,7.71470346 C2,7.53128424 2.09903013,7.359559 2.26493702,7.25528394 L13.6509087,0.0990239608 C13.8609782,-0.0330079869 14.1389658,-0.0330079869 14.3490353,0.0990239608 L25.735007,7.25528394 C26.0139798,7.43062267 26.083851,7.77845193 25.8910686,8.03218232 C25.7764198,8.1830774 25.5876104,8.27314695 25.3859437,8.27314695 L23.6173445,8.27314695 L22.8227661,22" id="Combined-Shape" fill="#FF5A5A"></path>
                    <path d="M3.80561698,22.5 L20.3508716,22.5 L21.14545,8.77314695 L23.3859437,8.77314695 C23.4340886,8.77314695 23.4746239,8.75381001 23.4929477,8.72969318 C23.505498,8.71317507 23.5028348,8.69991744 23.4689382,8.67861288 L12.0829665,1.5223529 C12.035547,1.49254903 11.964397,1.49254903 11.9169775,1.5223529 L0.531005827,8.67861288 C0.507860595,8.69316002 0.5,8.70679084 0.5,8.71470346 C0.5,8.73584318 0.541014934,8.77314695 0.6140003,8.77314695 L2.83485312,8.77314695 L3.80561698,22.5 Z" id="Combined-Shape" stroke="#2E2E2E"></path>
                    <path d="M6,9 L12,9" id="Path-38" stroke="#2E2E2E" stroke-linecap="round"></path>
                    <path d="M9,16 C9,17.6568542 10.3431458,19 12,19 C13.6568542,19 15,17.6568542 15,16 C15,14.3431458 13.6568542,13 12,13 C11.6828413,13 11.3771777,13.0492162 11.0902297,13.1404278 M10.1077003,13.671959 C9.74620303,13.9661525 9.45453948,14.34286 9.26141266,14.7733786" id="Oval-3" stroke="#2E2E2E" fill="#FFFFFF" stroke-linecap="round"></path>
                    <path d="M1.13041415,23.3333333 L22.9611993,23.3333333" id="Path-51" stroke="#2E2E2E" stroke-linecap="round"></path>
                </g>
            </g>
        </g>
    </g>
</svg>