<?xml version="1.0" encoding="UTF-8"?>
<svg width="48px" height="48px" viewBox="0 0 48 48" version="1.1" xmlns="http://www.w3.org/2000/svg" xmlns:xlink="http://www.w3.org/1999/xlink">
    <!-- Generator: sketchtool 49.3 (51167) - http://www.bohemiancoding.com/sketch -->
    <title>0F4FF2A4-3A28-4515-B54B-E05E212BEC0E</title>
    <desc>Created with sketchtool.</desc>
    <defs></defs>
    <g id="дизайн" stroke="none" stroke-width="1" fill="none" fill-rule="evenodd">
        <g id="Для-школы-разрабов" transform="translate(-16.000000, -100.000000)">
            <g id="Group-54" transform="translate(16.000000, 100.000000)">
                <g id="ic_bill" transform="translate(6.000000, 10.000000)">
                    <rect id="Rectangle-15" fill="#6CDDE1" x="3" y="0" width="32" height="26"></rect>
                    <rect id="Rectangle-13" stroke="#2E2E2E" x="0.5" y="5.5" width="29" height="23" rx="1"></rect>
                    <path d="M6,20 L6,3.90537614 C6,3.40535071 6.38454475,3 6.85890473,3 C15.8718169,3 22.631501,3 27.1379571,3 M29.3593611,3 C29.8698607,3 30.7500736,3 32,3" id="Rectangle-13-Copy" stroke="#2E2E2E" stroke-linecap="round" stroke-linejoin="round" transform="translate(19.000000, 11.500000) scale(-1, 1) translate(-19.000000, -11.500000) "></path>
                    <g id="Group-22" transform="translate(4.000000, 11.000000)" fill="#2E2E2E">
                        <g id="Group-21">
                            <rect id="Rectangle-14" x="9.30769231" y="0" width="1.69230769" height="1" rx="0.5"></rect>
                            <rect id="Rectangle-14-Copy" x="0" y="0" width="7.61538462" height="1" rx="0.5"></rect>
                        </g>
                        <g id="Group-21-Copy" transform="translate(0.000000, 2.538462)">
                            <rect id="Rectangle-14" x="9.30769231" y="0" width="1.69230769" height="1" rx="0.5"></rect>
                            <rect id="Rectangle-14-Copy" x="0" y="0" width="7.61538462" height="1" rx="0.5"></rect>
                        </g>
                        <g id="Group-21-Copy-2" transform="translate(0.000000, 5.076923)">
                            <rect id="Rectangle-14" x="9.30769231" y="0" width="1.69230769" height="1" rx="0.5"></rect>
                            <rect id="Rectangle-14-Copy" x="0" y="0" width="6.76923077" height="1" rx="0.5"></rect>
                        </g>
                        <g id="Group-21-Copy-3" transform="translate(0.000000, 7.615385)">
                            <rect id="Rectangle-14" x="9.30769231" y="0" width="1.69230769" height="1" rx="0.5"></rect>
                            <rect id="Rectangle-14-Copy" x="0" y="0" width="5.07692308" height="1" rx="0.5"></rect>
                        </g>
                        <g id="Group-21-Copy-4" transform="translate(0.000000, 10.153846)">
                            <rect id="Rectangle-14" x="9.30769231" y="0" width="1.69230769" height="1" rx="0.5"></rect>
                            <rect id="Rectangle-14-Copy" x="0" y="0" width="6.76923077" height="1" rx="0.5"></rect>
                        </g>
                    </g>
                    <g id="Group-16" transform="translate(20.000000, 12.000000)" stroke="#2E2E2E" stroke-linecap="round" stroke-linejoin="round">
                        <path d="M2.08333333,0.4375 L2.08333333,6.5625" id="Line-2"></path>
                        <path d="M1.66666667,0 L3.33333333,0 C4.25380792,0 5,0.783501688 5,1.75 C5,2.71649831 4.25380792,3.5 3.33333333,3.5 L0.140991211,3.53674316" id="Rectangle-3"></path>
                        <path d="M0.416666667,5.6875 L2.91666667,5.6875" id="Line-3"></path>
                    </g>
                </g>
            </g>
        </g>
    </g>
</svg>