<?xml version="1.0" encoding="UTF-8"?>
<svg width="48px" height="48px" viewBox="0 0 48 48" version="1.1" xmlns="http://www.w3.org/2000/svg" xmlns:xlink="http://www.w3.org/1999/xlink">
    <!-- Generator: sketchtool 49.3 (51167) - http://www.bohemiancoding.com/sketch -->
    <title>2939926F-0308-4711-AC32-7CB68EE0C87A</title>
    <desc>Created with sketchtool.</desc>
    <defs>
        <rect id="path-1" x="8.23631336" y="9.99095023" width="16.5273733" height="13.0588235" rx="3"></rect>
    </defs>
    <g id="дизайн" stroke="none" stroke-width="1" fill="none" fill-rule="evenodd">
        <g id="Для-школы-разрабов" transform="translate(-192.000000, -100.000000)">
            <g id="Group-50" transform="translate(192.000000, 100.000000)">
                <g id="ic_counter" transform="translate(6.000000, 6.000000)">
                    <path d="M29.8841762,22.270873 L27.3008352,30.2342839 C26.7658977,31.883283 25.2296262,33 23.4960299,33 L14.148258,33 C12.4028694,33 10.8589955,31.868298 10.3337077,30.2038299 L7.63730596,21.6597992 C5.97776175,19.4127064 5,16.6535719 5,13.6714286 C5,6.12090706 11.2680135,0 19,0 C26.7319865,0 33,6.12090706 33,13.6714286 C33,16.929826 31.8326956,19.9219836 29.8841762,22.270873 Z" id="Combined-Shape-Copy-2" fill="#6CDDE1"></path>
                    <g id="Group-14-Copy">
                        <path d="M26.7261728,25.0361334 L26.8142184,24.8724462 C28.7135622,22.5258513 29.7667829,19.6045358 29.7667829,16.520362 C29.7667829,9.18687675 23.8269484,3.24208145 16.5,3.24208145 C9.1730516,3.24208145 3.23321709,9.18687675 3.23321709,16.520362 C3.23321709,19.3455775 4.11632471,22.0363783 5.73224257,24.2788562 L5.80444807,24.4240229 L8.45444817,33.0300118 C8.90654743,34.4982236 10.2632137,35.5 11.7994557,35.5 L20.8508025,35.5 C22.3769201,35.5 23.7271049,34.511159 24.1876378,33.0561867 L26.7261728,25.0361334 Z" id="Combined-Shape" stroke="#2E2E2E"></path>
                        <path d="M24.1571914,8.29344205 C22.1507745,6.42202977 19.4589864,5.27706254 16.5,5.27706254 C11.6748722,5.27706254 7.56024648,8.32162415 5.96935533,12.5960005 M5.2660828,16.520362 C5.2660828,17.1891593 5.32442846,17.844318 5.43630337,18.4810174 M6.68051299,21.9860902 C8.599768,25.4325191 12.2778774,27.7636614 16.5,27.7636614 M27.7339172,16.520362 C27.7339172,15.5585244 27.6132406,14.624896 27.3862142,13.7338151" id="Oval-16" stroke="#2E2E2E" stroke-linecap="round" transform="translate(16.500000, 16.520362) rotate(-41.000000) translate(-16.500000, -16.520362) "></path>
                        <g id="Rectangle-10">
                            <use fill="#FFFFFF" fill-rule="evenodd" xlink:href="#path-1"></use>
                            <rect stroke="#2E2E2E" stroke-width="1" x="8.73631336" y="10.4909502" width="15.5273733" height="12.0588235" rx="3"></rect>
                        </g>
                        <g id="Group-13" transform="translate(11.278117, 13.194570)" stroke="#2E2E2E">
                            <rect id="Rectangle-12-Copy" x="3.34829991" y="0.5" width="1" height="1.85067873" rx="0.5"></rect>
                            <rect id="Rectangle-12-Copy-3" x="9.04489974" y="0.5" width="1" height="1.85067873" rx="0.5"></rect>
                            <rect id="Rectangle-12-Copy-2" x="0.5" y="0.5" width="1" height="1.85067873" rx="0.5"></rect>
                            <rect id="Rectangle-12-Copy-4" x="6.19659983" y="0.5" width="1" height="1.85067873" rx="0.5"></rect>
                        </g>
                        <rect id="Rectangle-12" fill="#2E2E2E" x="11.2781168" y="18.8959276" width="10.4437663" height="1" rx="0.5"></rect>
                        <ellipse id="Oval-17-Copy" fill="#2E2E2E" cx="16.5" cy="31.7239819" rx="1.42414996" ry="1.42533937"></ellipse>
                    </g>
                </g>
            </g>
        </g>
    </g>
</svg>