<?xml version="1.0" encoding="UTF-8"?>
<svg width="23px" height="17px" viewBox="0 0 23 17" version="1.1" xmlns="http://www.w3.org/2000/svg" xmlns:xlink="http://www.w3.org/1999/xlink">
    <!-- Generator: sketchtool 49.3 (51167) - http://www.bohemiancoding.com/sketch -->
    <title>37CF742C-C3D4-4996-B4D7-106362EA824B</title>
    <desc>Created with sketchtool.</desc>
    <defs></defs>
    <g id="дизайн" stroke="none" stroke-width="1" fill="none" fill-rule="evenodd">
        <g id="Для-школы-разрабов" transform="translate(-321.000000, -43.000000)">
            <g id="ic_home" transform="translate(321.000000, 43.000000)">
                <g id="Group-43" fill="#2A2A2A">
                    <path d="M9.62782535,0.718133504 L17.6529872,7.19159968 C17.8679196,7.36497407 17.901609,7.67975892 17.7282346,7.8946913 C17.6333147,8.01236359 17.4902489,8.0807692 17.3390651,8.0807692 L0.66089721,8.0807692 C0.384754835,8.0807692 0.16089721,7.85691157 0.16089721,7.5807692 C0.16089721,7.42958536 0.229302824,7.28651958 0.346975105,7.19159968 L8.37213693,0.718133504 C8.738528,0.422585546 9.26143428,0.422585546 9.62782535,0.718133504 Z" id="Triangle-3"></path>
                    <path d="M16,11.5 L11.5610008,11.5 L13.7071068,9.35352282 L12.9999389,8.64647718 L9.64641604,12.00058 L13,15.353584 L13.7070456,14.646416 L11.5602583,12.5 L16,12.5 L16,16 C16,16.5522847 15.5522847,17 15,17 L3,17 C2.44771525,17 2,16.5522847 2,16 L2,8 L16,8 L16,11.5 Z" id="Combined-Shape"></path>
                </g>
                <g id="Group-44" transform="translate(9.000000, 8.000000)"></g>
                <g id="Group-44-Copy-2" transform="translate(19.500000, 12.000000) scale(-1, 1) translate(-19.500000, -12.000000) translate(16.000000, 8.000000)" fill="#2A2A2A" fill-rule="nonzero">
                    <path d="M2.56100076,3.5 L7,3.5 L7,4.5 L2.56025832,4.5 L4.70704564,6.64641604 L4.00000001,7.35358396 L0.64641604,4.00057999 L3.99993886,0.646477181 L4.70710678,1.35352282 L2.56100076,3.5 Z" id="Combined-Shape"></path>
                </g>
            </g>
        </g>
    </g>
</svg>