<?xml version="1.0" encoding="UTF-8"?>
<svg width="48px" height="48px" viewBox="0 0 48 48" version="1.1" xmlns="http://www.w3.org/2000/svg" xmlns:xlink="http://www.w3.org/1999/xlink">
    <!-- Generator: sketchtool 49.3 (51167) - http://www.bohemiancoding.com/sketch -->
    <title>61E418A0-3AFD-487C-B90B-4AEFE7E90FD7</title>
    <desc>Created with sketchtool.</desc>
    <defs></defs>
    <g id="дизайн" stroke="none" stroke-width="1" fill="none" fill-rule="evenodd">
        <g id="Для-школы-разрабов" transform="translate(-192.000000, -370.000000)">
            <g id="Group-56" transform="translate(192.000000, 370.000000)">
                <g id="ic_homephone" transform="translate(13.000000, 6.000000)">
                    <rect id="Rectangle-5" fill="#6CDDE1" x="3" y="6" width="18" height="25"></rect>
                    <g id="Group-9" stroke="#2E2E2E">
                        <path d="M20.7692308,9.29425837 C20.7692308,7.81488368 19.7265368,6.57769096 18.3321126,6.26980727" id="Oval-3" stroke-linecap="round"></path>
                        <path d="M23.8846154,9.29425837 C23.8846154,6.26432478 21.6976762,3.74234201 18.8078871,3.20415876" id="Oval-3" stroke-linecap="round"></path>
                        <path d="M27,9.29425837 C27,4.77666317 23.7588894,1.01186659 19.4629196,0.173980701" id="Oval-3" stroke-linecap="round"></path>
                        <g id="Group-4" transform="translate(0.000000, 8.261563)">
                            <rect id="Rectangle-53" x="0.5" y="0.5" width="17.6923077" height="24.8173844" rx="1"></rect>
                            <rect id="Rectangle" x="3.61538462" y="4.6307815" width="11.4615385" height="2.09808612" rx="1"></rect>
                            <ellipse id="Oval-2" cx="5.19230769" cy="11.3596491" rx="1.03846154" ry="1.03269537"></ellipse>
                            <ellipse id="Oval-2-Copy-3" cx="5.19230769" cy="15.4904306" rx="1.03846154" ry="1.03269537"></ellipse>
                            <ellipse id="Oval-2-Copy" cx="9.34615385" cy="11.3596491" rx="1.03846154" ry="1.03269537"></ellipse>
                            <ellipse id="Oval-2-Copy-4" cx="9.34615385" cy="15.4904306" rx="1.03846154" ry="1.03269537"></ellipse>
                            <ellipse id="Oval-2-Copy-2" cx="13.5" cy="11.3596491" rx="1.03846154" ry="1.03269537"></ellipse>
                            <ellipse id="Oval-2-Copy-5" cx="13.5" cy="15.4904306" rx="1.03846154" ry="1.03269537"></ellipse>
                            <ellipse id="Oval-2-Copy-8" cx="5.19230769" cy="19.6212121" rx="1.03846154" ry="1.03269537"></ellipse>
                            <ellipse id="Oval-2-Copy-7" cx="9.34615385" cy="19.6212121" rx="1.03846154" ry="1.03269537"></ellipse>
                            <ellipse id="Oval-2-Copy-6" cx="13.5" cy="19.6212121" rx="1.03846154" ry="1.03269537"></ellipse>
                        </g>
                    </g>
                </g>
            </g>
        </g>
    </g>
</svg>