<?xml version="1.0" encoding="UTF-8"?>
<svg width="17px" height="17px" viewBox="0 0 17 17" version="1.1" xmlns="http://www.w3.org/2000/svg" xmlns:xlink="http://www.w3.org/1999/xlink">
    <!-- Generator: sketchtool 49.3 (51167) - http://www.bohemiancoding.com/sketch -->
    <title>F388D2C4-7027-4D90-A465-31A59BD39EDB</title>
    <desc>Created with sketchtool.</desc>
    <defs></defs>
    <g id="дизайн" stroke="none" stroke-width="1" fill="none" fill-rule="evenodd">
        <g id="Для-школы-разрабов" transform="translate(-280.000000, -44.000000)" fill="#2A2A2A">
            <path d="M288.5,61 C283.80558,61 280,57.1944204 280,52.5 C280,47.8055796 283.80558,44 288.5,44 C293.19442,44 297,47.8055796 297,52.5 C297,57.1944204 293.19442,61 288.5,61 Z M288.5,48.95 C288.969442,48.95 289.35,48.569442 289.35,48.1 C289.35,47.630558 288.969442,47.25 288.5,47.25 C288.030558,47.25 287.65,47.630558 287.65,48.1 C287.65,48.569442 288.030558,48.95 288.5,48.95 Z M288.5,50.65 C288.030558,50.65 287.65,51.030558 287.65,51.5 L287.65,55.75 C287.65,56.219442 288.030558,56.6 288.5,56.6 C288.969442,56.6 289.35,56.219442 289.35,55.75 L289.35,51.5 C289.35,51.030558 288.969442,50.65 288.5,50.65 Z" id="ic_info_white"></path>
        </g>
    </g>
</svg>