<?xml version="1.0" encoding="UTF-8"?>
<svg width="48px" height="48px" viewBox="0 0 48 48" version="1.1" xmlns="http://www.w3.org/2000/svg" xmlns:xlink="http://www.w3.org/1999/xlink">
    <!-- Generator: sketchtool 49.3 (51167) - http://www.bohemiancoding.com/sketch -->
    <title>6805DE86-DC90-46F8-A799-2436D8917302</title>
    <desc>Created with sketchtool.</desc>
    <defs></defs>
    <g id="дизайн" stroke="none" stroke-width="1" fill="none" fill-rule="evenodd">
        <g id="Для-школы-разрабов" transform="translate(-192.000000, -235.000000)">
            <g id="ic_insurance" transform="translate(192.000000, 235.000000)">
                <path d="M16.5343531,19.9845639 C17.3381581,19.1309493 18.5208267,18.5798817 19.8587953,18.5798817 C21.2035902,18.5798817 22.3930851,19.1386674 23.1985968,20 C24.0041085,19.1386674 25.1918968,18.5798817 26.5383983,18.5798817 C27.8746603,18.5798817 29.0573289,19.1309493 29.8628405,19.9845639 C30.6666456,19.1309493 31.8493142,18.5798817 33.1872827,18.5798817 C34.5098919,18.5798817 35.6840276,19.1216877 36.4895392,19.9598662 C37.2950509,19.1216877 38.4674799,18.5798817 39.7917957,18.5798817 C39.8634726,18.5798817 39.9300297,18.7969128 40,18.8 C39.4130435,12.8 33.3818343,8 26.5008533,8 C19.6181657,8 13.9420391,12.6092102 13,18.5984049 C13.0716769,18.5953177 13.138234,18.5798817 13.2099109,18.5798817 C14.5461728,18.5798817 15.7288414,19.1309493 16.5343531,19.9845639 Z" id="Fill-1" fill="#6CDDE1"></path>
                <path d="M35.6560217,22.7440128 L35.6560217,36 C35.6560217,36.5522847 35.2083064,37 34.6560217,37 L15.3438332,37 C14.7915485,37 14.3438332,36.5522847 14.3438332,36 L14.3438332,22.7440128 L11.5404243,22.7440128 C10.9881395,22.7440128 10.5404243,22.2962976 10.5404243,21.7440128 C10.5404243,21.4059781 10.7112004,21.0908244 10.9943943,20.9062472 L24.4538974,12.1337545 C24.7857825,11.917442 25.2140724,11.917442 25.5459575,12.1337545 L39.0054606,20.9062472 C39.4681458,21.2078113 39.5987603,21.8273577 39.2971962,22.2900429 C39.1126191,22.5732368 38.7974654,22.7440128 38.4594306,22.7440128 L35.6560217,22.7440128 Z" id="Combined-Shape-Copy-10" fill="#6CDDE1"></path>
                <path d="M29.2078965,21.567714 L15.9116286,21.5006584 L9.85782575,24.8908611 C9.63676083,25.0146601 9.5,25.2478151 9.5,25.5005622 C9.5,25.8865661 9.81369071,26.1997877 10.2010217,26.1997877 L12.2992478,26.1997877 L12.2992478,37.8007745 C12.2992478,38.1867784 12.6129386,38.5 13.0002695,38.5 L31.9995161,38.5 C32.3868471,38.5 32.7005378,38.1867784 32.7005378,37.8007745 L32.7005378,26.1997877 L34.798764,26.1997877 C35.0525168,26.1997877 35.2863792,26.0630219 35.410344,25.8423226 C35.5994133,25.5057152 35.4794124,25.0798386 35.1419599,24.8908611 L29.2078965,21.567714 Z" id="Combined-Shape-Copy-11" stroke="#2E2E2E"></path>
                <path d="M16.5,33.5 L19.5,33.5 L19.5,29 C19.5,28.7238576 19.2761424,28.5 19,28.5 L17,28.5 C16.7238576,28.5 16.5,28.7238576 16.5,29 L16.5,33.5 Z" id="Rectangle-50-Copy-11" stroke="#2E2E2E"></path>
                <path d="M21.5,33.5 L24.5,33.5 L24.5,29 C24.5,28.7238576 24.2761424,28.5 24,28.5 L22,28.5 C21.7238576,28.5 21.5,28.7238576 21.5,29 L21.5,33.5 Z" id="Rectangle-50-Copy-12" stroke="#2E2E2E"></path>
                <path d="M26.5,33.5 L29.5,33.5 L29.5,29 C29.5,28.7238576 29.2761424,28.5 29,28.5 L27,28.5 C26.7238576,28.5 26.5,28.7238576 26.5,29 L26.5,33.5 Z" id="Rectangle-50-Copy-13" stroke="#2E2E2E"></path>
                <path d="M9.20991088,18.5798817 C10.5461728,18.5798817 11.7288414,19.1309493 12.5343531,19.9845639 C13.3381581,19.1309493 14.5208267,18.5798817 15.8587953,18.5798817 C17.2035902,18.5798817 18.3930851,19.1386674 19.1985968,20 C20.0041085,19.1386674 21.1918968,18.5798817 22.5383983,18.5798817 C23.8746603,18.5798817 25.0573289,19.1309493 25.8628405,19.9845639 C26.6666456,19.1309493 27.8493142,18.5798817 29.1872827,18.5798817 C30.5098919,18.5798817 31.6840276,19.1216877 32.4895392,19.9598662 C33.2950509,19.1216877 34.4674799,18.5798817 35.7917957,18.5798817 C35.8634726,18.5798817 35.9300297,18.5953177 36,18.5984049 C35.0579609,12.6092102 29.3818343,8 22.5008533,8 C15.6181657,8 9.94203906,12.6092102 9,18.5984049 C9.07167689,18.5953177 9.13823399,18.5798817 9.20991088,18.5798817" id="Fill-1" stroke="#2E2E2E" stroke-linejoin="round"></path>
                <path d="M23,19 L23,25 C23,25.5522847 23.4477153,26 24,26 L24,26 C24.5522847,26 25,25.5522847 25,25 L25,24.0700018" id="Path-30" stroke="#2E2E2E"></path>
                <path d="M15.7878996,12 C14.3963995,13.2909766 13.4020229,14.98009 13,16.8783052 M32,17 C31.6309273,15.1314481 30.6891769,13.4597726 29.3583936,12.1627909" id="Oval-32" stroke="#2E2E2E" stroke-linecap="round"></path>
                <path d="M20.1738524,12 C19.5879577,13.2909766 19.1692728,14.98009 19,16.8783052 M27,17 C26.844601,15.1314481 26.4480745,13.4597726 25.8877447,12.1627909" id="Oval-32" stroke="#2E2E2E" stroke-linecap="round"></path>
                <path d="M39,18 C39.4444444,18 39.7777778,18.1666667 40,18.5 L40,21 C40,22.1045695 39.1045695,23 38,23 L35.5,23 C35.8333333,22.3333333 36,21.7777778 36,21.3333333 C36,20.8888889 36.4444444,19.7777778 37.3333333,18 C38,18 38.5555556,18 39,18 Z" id="Path-31" fill="#6CDDE1"></path>
            </g>
        </g>
    </g>
</svg>