<?xml version="1.0" encoding="UTF-8"?>
<svg width="48px" height="48px" viewBox="0 0 48 48" version="1.1" xmlns="http://www.w3.org/2000/svg" xmlns:xlink="http://www.w3.org/1999/xlink">
    <!-- Generator: sketchtool 49.3 (51167) - http://www.bohemiancoding.com/sketch -->
    <title>91267F18-3701-4B1B-9718-A87A6CDB0DEA</title>
    <desc>Created with sketchtool.</desc>
    <defs></defs>
    <g id="дизайн" stroke="none" stroke-width="1" fill="none" fill-rule="evenodd">
        <g id="Для-школы-разрабов" transform="translate(-16.000000, -637.000000)">
            <g id="Group-60" transform="translate(16.000000, 637.000000)">
                <g id="Group-23" transform="translate(14.000000, 13.000000)">
                    <rect id="Rectangle-9" fill="#C388F3" x="2" y="0" width="17" height="21"></rect>
                    <g id="Group-20" transform="translate(0.000000, 2.000000)" stroke="#2E2E2E">
                        <path d="M16,16.7045455 L16,20.0454545 C16,20.5726354 15.5522847,21 15,21 L1,21 C0.44771525,21 0,20.5726354 0,20.0454545 L0,0.954545455 C0,0.427364557 0.44771525,0 1,0 L15,0 C15.5522847,0 16,0.427364557 16,0.954545455 L16,2.38636364" id="Rectangle-11" stroke-linecap="round"></path>
                        <path d="M3,4 L9.5,4" id="Path-33" stroke-linecap="round"></path>
                        <path d="M3,7 L7.52769257,7" id="Path-33-Copy" stroke-linecap="round"></path>
                        <path d="M3,10 L5.54950976,10" id="Path-33-Copy-2" stroke-linecap="round"></path>
                        <g id="Group-13" transform="translate(5.000000, 0.000000)">
                            <g id="Group-36" transform="translate(10.500000, 10.000000) rotate(-315.000000) translate(-10.500000, -10.000000) translate(7.000000, 0.000000)">
                                <path d="M3.4706993,15.9021395 C5.38751359,15.9021395 6.9413986,12.7804955 6.9413986,8.92975253 C6.9413986,6.71012958 6.07653504,4.02869114 4.34680793,0.885437215 L4.34681266,0.885434612 C4.08054406,0.401572265 3.47244278,0.22517768 2.98858043,0.491446279 C2.8225772,0.582797567 2.68594344,0.719431312 2.59459214,0.885434538 C0.864864047,4.02868962 0,6.71012895 0,8.92975253 C0,12.7804955 1.553885,15.9021395 3.4706993,15.9021395 Z" id="Oval-25"></path>
                                <path d="M3.4706993,7.12209665 L3.4706993,19.2619616" id="Path-17" stroke-linecap="round" stroke-linejoin="round"></path>
                            </g>
                        </g>
                    </g>
                </g>
            </g>
        </g>
    </g>
</svg>