<?xml version="1.0" encoding="UTF-8"?>
<svg width="48px" height="48px" viewBox="0 0 48 48" version="1.1" xmlns="http://www.w3.org/2000/svg" xmlns:xlink="http://www.w3.org/1999/xlink">
    <!-- Generator: sketchtool 49.3 (51167) - http://www.bohemiancoding.com/sketch -->
    <title>9CADC142-ABB3-4671-AB08-CCA321922DB7</title>
    <desc>Created with sketchtool.</desc>
    <defs></defs>
    <g id="дизайн" stroke="none" stroke-width="1" fill="none" fill-rule="evenodd">
        <g id="Для-школы-разрабов" transform="translate(-16.000000, -573.000000)">
            <g id="Group-59" transform="translate(16.000000, 573.000000)">
                <g id="Group-26" transform="translate(12.000000, 11.000000)">
                    <rect id="Rectangle-9" fill="#C388F3" x="5" y="0" width="18" height="22"></rect>
                    <g id="Group-12" transform="translate(0.000000, 2.000000)" stroke="#2E2E2E">
                        <g id="Group-11" transform="translate(2.000000, 0.000000)">
                            <path d="M4.88218252,10.4426543 C4.24348041,9.28470041 4,8.3511911 4,7.72066966 C4,7.09014822 4.15491382,6.90930692 4.31210884,6.76321117 C4.46930385,6.61711542 5.17814291,6.18009341 5.29891873,6.09859035 C5.41969455,6.01708729 5.8806521,5.85869488 6.16972555,6.27453117 C6.45879899,6.69036745 7.00315888,7.52527984 7.37846168,8.07992519 C7.96738409,8.8655368 7.49820298,9.21040737 7.34665458,9.41711218 C7.06778474,9.79747735 6.90721153,9.89129154 6.90721153,10.3583445 C6.90721153,10.8253974 8.21249577,12.1523114 8.5246046,12.4792485 C8.83433926,12.8036985 10.1349435,13.9438555 10.5379558,14.0048258 C10.9438033,14.066225 11.4871184,13.6365519 11.6026347,13.5275961 C12.1902771,13.0764347 12.5219898,13.4184809 12.7926694,13.567161 C13.0633491,13.7158412 14.2863331,14.4779142 14.6653224,14.7347933 C15.0220183,14.9916724 14.9997248,15.3886674 14.9997248,15.3886674 C14.9997248,15.3886674 14.2640397,16.5562997 14.1748657,16.6964156 C14.0633983,16.8598841 13.7958764,17 13.1939522,17 C12.592028,17 11.9489008,16.8900622 10.4204764,16.0494895 C9.16986108,15.3617007 7.97767553,14.28467 7.35345786,13.6541486 C6.7069467,13.0236271 5.61176018,11.7653638 4.88218252,10.4426543 Z" id="Icon"></path>
                            <rect id="Rectangle-7" x="0.5" y="0.5" width="18" height="22" rx="2"></rect>
                        </g>
                        <path d="M2.5,3 L0,3" id="Path-32" stroke-linecap="round" stroke-linejoin="round"></path>
                        <path d="M2.5,17 L0,17" id="Path-32-Copy-2" stroke-linecap="round" stroke-linejoin="round"></path>
                        <path d="M2.5,5 L0,5" id="Path-32-Copy" stroke-linecap="round" stroke-linejoin="round"></path>
                        <path d="M2.5,19 L0,19" id="Path-32-Copy-3" stroke-linecap="round" stroke-linejoin="round"></path>
                    </g>
                </g>
            </g>
        </g>
    </g>
</svg>